<mxfile host="app.diagrams.net" modified="2022-10-15T18:03:29.308Z" agent="5.0 (X11; Linux x86_64) AppleWebKit/537.36 (KHTML, like Gecko) Chrome/106.0.0.0 Safari/537.36" etag="jrQZQeMeQS2IycJmoxDj" version="20.4.1" type="github">
  <diagram id="InmgYFGWhpqrJ_Sa_hGO" name="Page-1">
    <mxGraphModel dx="794" dy="461" grid="1" gridSize="10" guides="1" tooltips="1" connect="1" arrows="1" fold="1" page="1" pageScale="1" pageWidth="827" pageHeight="1169" math="0" shadow="0">
      <root>
        <mxCell id="0" />
        <mxCell id="1" parent="0" />
        <mxCell id="Ibt9ROxpTju9WvK0TQ91-4" style="edgeStyle=orthogonalEdgeStyle;shape=arrow;rounded=0;orthogonalLoop=1;jettySize=auto;html=1;exitX=1;exitY=0.5;exitDx=0;exitDy=0;entryX=0;entryY=0.5;entryDx=0;entryDy=0;entryPerimeter=0;" edge="1" parent="1" source="Ibt9ROxpTju9WvK0TQ91-1" target="Ibt9ROxpTju9WvK0TQ91-3">
          <mxGeometry relative="1" as="geometry" />
        </mxCell>
        <mxCell id="Ibt9ROxpTju9WvK0TQ91-9" style="edgeStyle=orthogonalEdgeStyle;shape=flexArrow;rounded=0;orthogonalLoop=1;jettySize=auto;html=1;exitX=0.5;exitY=0;exitDx=0;exitDy=0;entryX=0;entryY=0.5;entryDx=0;entryDy=0;" edge="1" parent="1" source="Ibt9ROxpTju9WvK0TQ91-1" target="Ibt9ROxpTju9WvK0TQ91-6">
          <mxGeometry relative="1" as="geometry" />
        </mxCell>
        <mxCell id="Ibt9ROxpTju9WvK0TQ91-1" value="Producer" style="rounded=0;whiteSpace=wrap;html=1;" vertex="1" parent="1">
          <mxGeometry x="60" y="171" width="120" height="60" as="geometry" />
        </mxCell>
        <mxCell id="Ibt9ROxpTju9WvK0TQ91-10" style="edgeStyle=orthogonalEdgeStyle;shape=flexArrow;rounded=0;orthogonalLoop=1;jettySize=auto;html=1;entryX=1;entryY=0.5;entryDx=0;entryDy=0;" edge="1" parent="1" source="Ibt9ROxpTju9WvK0TQ91-2" target="Ibt9ROxpTju9WvK0TQ91-6">
          <mxGeometry relative="1" as="geometry">
            <Array as="points">
              <mxPoint x="620" y="80" />
            </Array>
          </mxGeometry>
        </mxCell>
        <mxCell id="Ibt9ROxpTju9WvK0TQ91-2" value="Consumer" style="rounded=0;whiteSpace=wrap;html=1;" vertex="1" parent="1">
          <mxGeometry x="560" y="170" width="120" height="60" as="geometry" />
        </mxCell>
        <mxCell id="Ibt9ROxpTju9WvK0TQ91-5" style="edgeStyle=orthogonalEdgeStyle;shape=arrow;rounded=0;orthogonalLoop=1;jettySize=auto;html=1;exitX=1;exitY=0.5;exitDx=0;exitDy=0;exitPerimeter=0;" edge="1" parent="1" source="Ibt9ROxpTju9WvK0TQ91-3" target="Ibt9ROxpTju9WvK0TQ91-2">
          <mxGeometry relative="1" as="geometry" />
        </mxCell>
        <mxCell id="Ibt9ROxpTju9WvK0TQ91-3" value="Kafka" style="shape=cylinder3;whiteSpace=wrap;html=1;boundedLbl=1;backgroundOutline=1;size=15;" vertex="1" parent="1">
          <mxGeometry x="340" y="160" width="60" height="80" as="geometry" />
        </mxCell>
        <mxCell id="Ibt9ROxpTju9WvK0TQ91-6" value="Schema Registry" style="rounded=0;whiteSpace=wrap;html=1;" vertex="1" parent="1">
          <mxGeometry x="310" y="50" width="120" height="60" as="geometry" />
        </mxCell>
        <mxCell id="Ibt9ROxpTju9WvK0TQ91-7" value="" style="shape=message;html=1;whiteSpace=wrap;html=1;outlineConnect=0;" vertex="1" parent="1">
          <mxGeometry x="190" y="150" width="40" height="30" as="geometry" />
        </mxCell>
        <mxCell id="Ibt9ROxpTju9WvK0TQ91-8" value="" style="shape=message;html=1;whiteSpace=wrap;html=1;outlineConnect=0;" vertex="1" parent="1">
          <mxGeometry x="470" y="150" width="40" height="30" as="geometry" />
        </mxCell>
      </root>
    </mxGraphModel>
  </diagram>
</mxfile>
